<?xml version="1.0" encoding="UTF-8" standalone="no"?><svg xmlns:dc="http://purl.org/dc/elements/1.1/" xmlns:cc="http://creativecommons.org/ns#" xmlns:rdf="http://www.w3.org/1999/02/22-rdf-syntax-ns#" xmlns:svg="http://www.w3.org/2000/svg" xmlns="http://www.w3.org/2000/svg" id="svg2" version="1.1" width="64" height="64" viewBox="0 0 64 64"><title id="title3359">Return image</title><metadata id="metadata8"><rdf:RDF><cc:Work rdf:about=""><dc:format>image/svg+xml</dc:format><dc:type rdf:resource="http://purl.org/dc/dcmitype/StillImage" /><dc:title>Return image</dc:title><dc:date>2016-09-28</dc:date><dc:creator><cc:Agent><dc:title>Rafael E. Chacon</dc:title></cc:Agent></dc:creator><dc:publisher><cc:Agent><dc:title>Rafael E. Chacon</dc:title></cc:Agent></dc:publisher><dc:description>Return image</dc:description><dc:language>en-GB</dc:language><cc:license rdf:resource="http://creativecommons.org/licenses/by-nc-sa/3.0/" /></cc:Work><cc:License rdf:about="http://creativecommons.org/licenses/by-nc-sa/3.0/"><cc:permits rdf:resource="http://creativecommons.org/ns#Reproduction" /><cc:permits rdf:resource="http://creativecommons.org/ns#Distribution" /><cc:requires rdf:resource="http://creativecommons.org/ns#Notice" /><cc:requires rdf:resource="http://creativecommons.org/ns#Attribution" /><cc:prohibits rdf:resource="http://creativecommons.org/ns#CommercialUse" /><cc:permits rdf:resource="http://creativecommons.org/ns#DerivativeWorks" /><cc:requires rdf:resource="http://creativecommons.org/ns#ShareAlike" /></cc:License></rdf:RDF></metadata><filter id="sh" width="150%" height="150%"><feOffset result="offOut" in="SourceAlpha" dx="2" dy="4" id="feOffset6" /><feGaussianBlur result="blurOut" in="offOut" stdDeviation="1" id="feGaussianBlur8" /><feBlend in="SourceGraphic" in2="blurOut" mode="normal" id="feBlend10" /></filter><g filter="url(#sh)" id="g12"><path id="Return" d="M 20.96875,54.658359 8.46875,43.158359 C 7.84375,42.158359 7.84375,41.158359 8.46875,40.158359 L 20.96875,29.658359 C 22.46875,28.428777 27.062502,26.158966 27,32.15864 L 27,35.15864 37.5,35.157999 C 40.5,35.157816 42.5,31.4 42.5,28.4 42.5,25.4 40.5,21.5 37.5,21.5 L 27,21.5 C 25.5,21.5 24,20 24,18.5 L 24,11 C 24,9.5 25.5,8 27,8 L 37.5,8 C 46.75,8 56,18.275 56,28.4 56,38.525 46.75,48.657684 37.5,48.657999 L 27,48.65864 27,51.65864 C 27,57.65864 22.588527,56.158359 20.96875,54.658359 Z" style="fill:#000080" /></g></svg>